<svg width="45" height="45" viewBox="0 0 45 45" fill="none" xmlns="http://www.w3.org/2000/svg">
<path d="M4.71374 34.0116H8.31685C8.56287 34.0116 8.79351 34.1215 8.94727 34.3151C9.30604 34.7599 9.69044 35.189 10.0953 35.5971C11.7513 37.2895 13.7129 38.6382 15.8716 39.5686C18.108 40.533 20.5117 41.0277 22.9394 41.0233C25.3945 41.0233 27.7726 40.5314 30.0073 39.5686C32.1659 38.6382 34.1275 37.2895 35.7835 35.5971C37.4425 33.9104 38.7653 31.9113 39.6788 29.7105C40.627 27.4291 41.1036 25.0064 41.1036 22.5C41.1036 19.9936 40.6218 17.571 39.6788 15.2896C38.7665 13.0867 37.4544 11.1035 35.7835 9.40297C34.1127 7.70239 32.1702 6.36286 30.0073 5.43146C27.7726 4.46868 25.3945 3.97682 22.9394 3.97682C20.4844 3.97682 18.1062 4.46344 15.8716 5.43146C13.7087 6.36286 11.7662 7.70239 10.0953 9.40297C9.69044 9.81634 9.31116 10.2454 8.94727 10.6849C8.79351 10.8785 8.55774 10.9884 8.31685 10.9884H4.71374C4.39085 10.9884 4.19096 10.6222 4.37034 10.3448C8.30147 4.10763 15.1797 -0.020851 22.9958 7.92138e-05C35.2761 0.0314745 45.1219 10.2088 44.9989 22.7303C44.8759 35.0529 35.0455 45 22.9394 45C15.1438 45 8.29635 40.8768 4.37034 34.6553C4.19608 34.3779 4.39085 34.0116 4.71374 34.0116ZM0.157318 22.1704L7.43017 16.3099C7.70181 16.0902 8.09646 16.289 8.09646 16.6396V20.6163H24.19C24.4155 20.6163 24.6 20.8047 24.6 21.0349V23.9652C24.6 24.1954 24.4155 24.3838 24.19 24.3838H8.09646V28.3605C8.09646 28.7111 7.69669 28.9099 7.43017 28.6901L0.157318 22.8297C0.108311 22.7905 0.068676 22.7405 0.04142 22.6834C0.014164 22.6263 0 22.5636 0 22.5C0 22.4365 0.014164 22.3738 0.04142 22.3167C0.068676 22.2596 0.108311 22.2095 0.157318 22.1704Z" fill="white"/>
</svg>
